<svg viewBox="0 0 200 200" xmlns="http://www.w3.org/2000/svg" style="background-color: palegreen;">
  <defs>
    <radialGradient id="gradient1" cx="50%" cy="50%" r="50%">
      <stop offset="0%" stop-color="yellow" />
      <stop offset="100%" stop-color="red" />
    </radialGradient>
    <filter id="shadow" x="-50%" y="-50%" width="200%" height="200%">
      <feDropShadow dx="3" dy="3" stdDeviation="2" flood-color="black" />
    </filter>
  </defs>
  <circle r="90" cx="100" cy="100" fill="url(#gradient1)" stroke="black"/>
  <path
    fill="yellow"
    stroke="black"
    filter="url(#shadow)"
    d="M 40,70
           l 0, 60
		   l 10, 0
		   l 0, -25
		   l 5, -5
		   l 25, 30
		   l 10, 0
		   l -30, -35
		   l 25, -25
		   l -10, 0
		   l -25, 25
		   l 0, -25
		   l -10.5, 0"    
  />
  <path
    fill="aqua"
    stroke="black"
    filter="url(#shadow)"
    d="M 110,70
           l 0, 60
		   l 10, 0
		   l 0, -25
		   l 5, -5
		   l 25, 30
		   l 10, 0
		   l -30, -35
		   l 25, -25
		   l -10, 0
		   l -25, 25
		   l 0, -25
		   l -10.5, 0"    
  />
</svg>